  0
SECTION
  2
HEADER
  9
$ACADVER
  1
AC1009
  9
$INSBASE
 10
0.0
 20
0.0
 30
0.0
  9
$EXTMIN
 10
-8.4549833775461565
 20
-1201.7046202942081
 30
0.0
  9
$EXTMAX
 10
3119.6762776273049
 20
414.9469671333996
 30
0.0
  9
$LIMMIN
 10
0.0
 20
0.0
  9
$LIMMAX
 10
420.0
 20
297.0
  9
$ORTHOMODE
 70
     1
  9
$REGENMODE
 70
     1
  9
$FILLMODE
 70
     1
  9
$QTEXTMODE
 70
     0
  9
$MIRRTEXT
 70
     1
  9
$DRAGMODE
 70
     2
  9
$LTSCALE
 40
1.0
  9
$OSMODE
 70
  1983
  9
$ATTMODE
 70
     1
  9
$TEXTSIZE
 40
2.5
  9
$TRACEWID
 40
1.0
  9
$TEXTSTYLE
  7
STANDARD
  9
$CLAYER
  8
0
  9
$CELTYPE
  6
BYLAYER
  9
$CECOLOR
 62
   256
  9
$DIMSCALE
 40
1.0
  9
$DIMASZ
 40
3.302
  9
$DIMEXO
 40
0.0
  9
$DIMDLI
 40
3.75
  9
$DIMRND
 40
0.0
  9
$DIMDLE
 40
0.0
  9
$DIMEXE
 40
1.0
  9
$DIMTP
 40
0.0
  9
$DIMTM
 40
0.0
  9
$DIMTXT
 40
3.5
  9
$DIMCEN
 40
2.5
  9
$DIMTSZ
 40
0.0
  9
$DIMTOL
 70
     0
  9
$DIMLIM
 70
     0
  9
$DIMTIH
 70
     1
  9
$DIMTOH
 70
     1
  9
$DIMSE1
 70
     0
  9
$DIMSE2
 70
     0
  9
$DIMTAD
 70
     1
  9
$DIMZIN
 70
     0
  9
$DIMBLK
  1

  9
$DIMASO
 70
     1
  9
$DIMSHO
 70
     1
  9
$DIMPOST
  1

  9
$DIMAPOST
  1

  9
$DIMALT
 70
     0
  9
$DIMALTD
 70
     3
  9
$DIMALTF
 40
0.0393700787
  9
$DIMLFAC
 40
1.0
  9
$DIMTOFL
 70
     1
  9
$DIMTVP
 40
0.0
  9
$DIMTIX
 70
     0
  9
$DIMSOXD
 70
     0
  9
$DIMSAH
 70
     0
  9
$DIMBLK1
  1

  9
$DIMBLK2
  1

  9
$DIMSTYLE
  2
ISO-25
  9
$DIMCLRD
 70
     0
  9
$DIMCLRE
 70
     0
  9
$DIMCLRT
 70
     0
  9
$DIMTFAC
 40
1.0
  9
$DIMGAP
 40
1.524
  9
$LUNITS
 70
     2
  9
$LUPREC
 70
     2
  9
$SKETCHINC
 40
1.0
  9
$FILLETRAD
 40
20.0
  9
$AUNITS
 70
     0
  9
$AUPREC
 70
     2
  9
$MENU
  1
.
  9
$ELEVATION
 40
0.0
  9
$PELEVATION
 40
0.0
  9
$THICKNESS
 40
0.0
  9
$LIMCHECK
 70
     0
  9
$BLIPMODE
 70
     0
  9
$CHAMFERA
 40
10.0
  9
$CHAMFERB
 40
10.0
  9
$SKPOLY
 70
     0
  9
$TDCREATE
 40
2456194.9346077442
  9
$TDUPDATE
 40
2459180.6598258102
  9
$TDINDWG
 40
1.4889080670999999
  9
$TDUSRTIMER
 40
1.488882037
  9
$USRTIMER
 70
     1
  9
$ANGBASE
 50
0.0
  9
$ANGDIR
 70
     0
  9
$PDMODE
 70
     0
  9
$PDSIZE
 40
-1.0
  9
$PLINEWID
 40
0.0
  9
$COORDS
 70
     1
  9
$SPLFRAME
 70
     0
  9
$SPLINETYPE
 70
     6
  9
$SPLINESEGS
 70
     8
  9
$ATTDIA
 70
     1
  9
$ATTREQ
 70
     1
  9
$HANDLING
 70
     1
  9
$HANDSEED
  5
788
  9
$SURFTAB1
 70
     6
  9
$SURFTAB2
 70
     6
  9
$SURFTYPE
 70
     6
  9
$SURFU
 70
     6
  9
$SURFV
 70
     6
  9
$UCSNAME
  2

  9
$UCSORG
 10
0.0
 20
0.0
 30
0.0
  9
$UCSXDIR
 10
1.0
 20
0.0
 30
0.0
  9
$UCSYDIR
 10
0.0
 20
1.0
 30
0.0
  9
$PUCSNAME
  2

  9
$PUCSORG
 10
0.0
 20
0.0
 30
0.0
  9
$PUCSXDIR
 10
1.0
 20
0.0
 30
0.0
  9
$PUCSYDIR
 10
0.0
 20
1.0
 30
0.0
  9
$USERI1
 70
     0
  9
$USERI2
 70
     0
  9
$USERI3
 70
     0
  9
$USERI4
 70
     0
  9
$USERI5
 70
     0
  9
$USERR1
 40
0.0
  9
$USERR2
 40
0.0
  9
$USERR3
 40
0.0
  9
$USERR4
 40
0.0
  9
$USERR5
 40
0.0
  9
$WORLDVIEW
 70
     1
  9
$SHADEDGE
 70
     3
  9
$SHADEDIF
 70
    70
  9
$TILEMODE
 70
     1
  9
$MAXACTVP
 70
    64
  9
$PLIMCHECK
 70
     0
  9
$PEXTMIN
 10
1.0000000000000000E+020
 20
1.0000000000000000E+020
 30
1.0000000000000000E+020
  9
$PEXTMAX
 10
-1.0000000000000000E+020
 20
-1.0000000000000000E+020
 30
-1.0000000000000000E+020
  9
$PLIMMIN
 10
0.0
 20
0.0
  9
$PLIMMAX
 10
420.0
 20
297.0
  9
$UNITMODE
 70
     0
  9
$VISRETAIN
 70
     1
  9
$PLINEGEN
 70
     0
  9
$PSLTSCALE
 70
     1
  0
ENDSEC
  0
SECTION
  2
TABLES
  0
TABLE
  2
VPORT
 70
     1
  0
VPORT
  2
*ACTIVE
 70
     0
 10
0.0
 20
0.0
 11
1.0
 21
1.0
 12
3428.1821254467809
 22
-16.906128592924691
 13
0.0
 23
0.0
 14
10.0
 24
10.0
 15
10.0
 25
10.0
 16
0.0
 26
0.0
 36
1.0
 17
0.0
 27
0.0
 37
0.0
 40
5774.0250359089378
 41
2.188141391106043
 42
50.0
 43
0.0
 44
0.0
 50
0.0
 51
0.0
 71
     0
 72
   100
 73
     1
 74
     3
 75
     0
 76
     0
 77
     0
 78
     0
  0
ENDTAB
  0
TABLE
  2
LTYPE
 70
     6
  0
LTYPE
  2
CONTINUOUS
 70
     0
  3
Solid line
 72
    65
 73
     0
 40
0.0
  0
LTYPE
  2
HIDDEN
 70
     0
  3
Hidden __ __ __ __ __ __ __ __ __ __ __ __ __ __
 72
    65
 73
     2
 40
1.905
 49
1.27
 49
-0.635
  0
LTYPE
  2
PHANTOM
 70
     0
  3
Phantom ______  __  __  ______  __  __  ______
 72
    65
 73
     6
 40
12.699999999999999
 49
6.349999999999997
 49
-1.27
 49
1.27
 49
-1.27
 49
1.27
 49
-1.27
  0
LTYPE
  2
CENTER
 70
     0
  3
Center ____ _ ____ _ ____ _ ____ _ ____ _ ____
 72
    65
 73
     4
 40
10.16
 49
6.349999999999997
 49
-1.27
 49
1.27
 49
-1.27
  0
LTYPE
  2
CENTERX2
 70
     0
  3
Center (2x) ________  __  ________  __  _____
 72
    65
 73
     4
 40
20.32
 49
12.699999999999999
 49
-2.54
 49
2.54
 49
-2.54
  0
LTYPE
  2
DOT2
 70
     0
  3
Dot (.5x) ........................................
 72
    65
 73
     2
 40
0.635
 49
0.0
 49
-0.635
  0
ENDTAB
  0
TABLE
  2
LAYER
 70
     4
  0
LAYER
  2
0
 70
     0
 62
     7
  6
CONTINUOUS
  0
LAYER
  2
якни1
 70
     0
 62
     7
  6
CONTINUOUS
  0
LAYER
  2
DEFPOINTS
 70
     0
 62
     7
  6
CONTINUOUS
  0
LAYER
  2
якни2
 70
     0
 62
     1
  6
CONTINUOUS
  0
ENDTAB
  0
TABLE
  2
STYLE
 70
     2
  0
STYLE
  2
STANDARD
 70
     0
 40
0.0
 41
1.0
 50
0.0
 71
     0
 42
2.5
  3
txt
  4

  0
STYLE
  2
ANNOTATIVE
 70
     0
 40
0.0
 41
1.0
 50
0.0
 71
     0
 42
0.2
  3
txt
  4

  0
ENDTAB
  0
TABLE
  2
VIEW
 70
     0
  0
ENDTAB
  0
TABLE
  2
UCS
 70
     0
  0
ENDTAB
  0
TABLE
  2
APPID
 70
     6
  0
APPID
  2
ACAD
 70
     0
  0
APPID
  2
ACADANNOTATIVE
 70
     0
  0
APPID
  2
ACAECLAYERSTANDARD
 70
     0
  0
APPID
  2
ACAD_EXEMPT_FROM_CAD_STANDARDS
 70
     0
  0
APPID
  2
ACAD_MLEADERVER
 70
     0
  0
APPID
  2
ACAD_NAV_VCDISPLAY
 70
     0
  0
ENDTAB
  0
TABLE
  2
DIMSTYLE
 70
     3
  0
DIMSTYLE
  2
STANDARD
 70
     0
  3

  4

  5

  6

  7

 40
1.0
 41
0.18
 42
0.0625
 43
0.38
 44
0.18
 45
0.0
 46
0.0
 47
0.0
 48
0.0
140
0.18
141
0.09
142
0.0
143
25.399999999999999
144
1.0
145
0.0
146
1.0
147
0.09
 71
     0
 72
     0
 73
     1
 74
     1
 75
     0
 76
     0
 77
     0
 78
     0
170
     0
171
     2
172
     0
173
     0
174
     0
175
     0
176
     0
177
     0
178
     0
  0
DIMSTYLE
  2
ANNOTATIVE
 70
     0
  3

  4

  5

  6

  7

 40
1.0
 41
0.18
 42
0.0625
 43
0.38
 44
0.18
 45
0.0
 46
0.0
 47
0.0
 48
0.0
140
0.18
141
0.09
142
0.0
143
25.399999999999999
144
1.0
145
0.0
146
1.0
147
0.09
 71
     0
 72
     0
 73
     1
 74
     1
 75
     0
 76
     0
 77
     0
 78
     0
170
     0
171
     2
172
     0
173
     0
174
     0
175
     0
176
     0
177
     0
178
     0
  0
DIMSTYLE
  2
ISO-25
 70
     0
  3

  4

  5

  6

  7

 40
1.0
 41
2.5
 42
0.625
 43
3.75
 44
1.25
 45
0.0
 46
0.0
 47
0.0
 48
0.0
140
2.5
141
2.5
142
0.0
143
0.0393700787
144
1.0
145
0.0
146
1.0
147
0.625
 71
     0
 72
     0
 73
     0
 74
     0
 75
     0
 76
     0
 77
     1
 78
     8
170
     0
171
     3
172
     1
173
     0
174
     0
175
     0
176
     0
177
     0
178
     0
  0
ENDTAB
  0
ENDSEC
  0
SECTION
  2
BLOCKS
  0
BLOCK
  8
0
  2
$MODEL_SPACE
 70
     0
 10
0.0
 20
0.0
 30
0.0
  3
$MODEL_SPACE
  1

  0
ENDBLK
  5
691
  8
0
  0
BLOCK
 67
     1
  8
0
  2
$PAPER_SPACE
 70
     0
 10
0.0
 20
0.0
 30
0.0
  3
$PAPER_SPACE
  1

  0
ENDBLK
  5
68D
 67
     1
  8
0
  0
BLOCK
  8
0
  2
*D2
 70
     1
 10
0.0
 20
0.0
 30
0.0
  3
*D2
  1

  0
LINE
  5
A8
  8
0
 62
     0
 10
-0.0000000000001137
 20
413.94696713339988
 30
0.0
 11
-0.000000000000108
 21
507.29787692553248
 31
0.0
  0
LINE
  5
A9
  8
0
 62
     0
 10
983.8427007489995
 20
413.94696713339988
 30
0.0
 11
983.8427007489995
 21
507.29787692553248
 31
0.0
  0
LINE
  5
AA
  8
0
 62
     0
 10
3.3019999999998921
 20
506.29787692553248
 30
0.0
 11
980.5407007489996
 21
506.29787692553248
 31
0.0
  0
SOLID
  5
AB
  8
0
 62
     0
 10
3.3019999999998921
 20
506.84821025886572
 30
0.0
 11
3.3019999999998921
 21
505.74754359219918
 31
0.0
 12
-0.000000000000108
 22
506.29787692553248
 32
0.0
 13
-0.000000000000108
 23
506.29787692553248
 33
0.0
  0
SOLID
  5
AC
  8
0
 62
     0
 10
980.5407007489996
 20
506.84821025886572
 30
0.0
 11
980.5407007489996
 21
505.74754359219918
 31
0.0
 12
983.8427007489995
 22
506.29787692553248
 32
0.0
 13
983.8427007489995
 23
506.29787692553248
 33
0.0
  0
INSERT
  5
AD
  8
0
  2
*U3
 10
0.0
 20
0.0
 30
0.0
  0
POINT
  5
AE
  8
DEFPOINTS
 62
     0
 10
-0.0000000000001137
 20
413.94696713339988
 30
0.0
  0
POINT
  5
AF
  8
DEFPOINTS
 62
     0
 10
983.8427007489995
 20
413.94696713339988
 30
0.0
  0
POINT
  5
B0
  8
DEFPOINTS
 62
     0
 10
983.8427007489995
 20
506.29787692553248
 30
0.0
  0
ENDBLK
  5
A6
  8
0
  0
BLOCK
  8
0
  2
*U3
 70
     1
 10
0.0
 20
0.0
 30
0.0
  3
*U3
  1

  0
TEXT
  5
F3
  8
0
 62
     0
 10
481.12968370783312
 20
508.40521025886602
 30
0.0
 40
3.5
  1
983,843
  0
ENDBLK
  5
F5
  8
0
  0
BLOCK
  8
0
  2
*D4
 70
     1
 10
0.0
 20
0.0
 30
0.0
  3
*D4
  1

  0
LINE
  5
C1
  8
0
 62
     0
 10
983.84270074899985
 20
0.0000000000000568
 30
0.0
 11
1046.175186381146
 21
0.0000000000000392
 31
0.0
  0
LINE
  5
C2
  8
0
 62
     0
 10
983.8427007489995
 20
413.94696713339988
 30
0.0
 11
1046.175186381146
 21
413.94696713339988
 31
0.0
  0
LINE
  5
C3
  8
0
 62
     0
 10
1045.175186381146
 20
3.3020000000000391
 30
0.0
 11
1045.175186381146
 21
203.4078169000334
 31
0.0
  0
LINE
  5
C4
  8
0
 62
     0
 10
1045.175186381146
 20
410.64496713339992
 30
0.0
 11
1045.175186381146
 21
210.5391502333668
 31
0.0
  0
SOLID
  5
C5
  8
0
 62
     0
 10
1044.624853047814
 20
3.3020000000000391
 30
0.0
 11
1045.72551971448
 21
3.3020000000000391
 31
0.0
 12
1045.175186381146
 22
0.0000000000000395
 32
0.0
 13
1045.175186381146
 23
0.0000000000000395
 33
0.0
  0
SOLID
  5
C6
  8
0
 62
     0
 10
1044.624853047814
 20
410.64496713339992
 30
0.0
 11
1045.72551971448
 21
410.64496713339992
 31
0.0
 12
1045.175186381146
 22
413.94696713339988
 32
0.0
 13
1045.175186381146
 23
413.94696713339988
 33
0.0
  0
INSERT
  5
C7
  8
0
  2
*U5
 10
0.0
 20
0.0
 30
0.0
  0
POINT
  5
C8
  8
DEFPOINTS
 62
     0
 10
983.84270074899985
 20
0.0000000000000568
 30
0.0
  0
POINT
  5
C9
  8
DEFPOINTS
 62
     0
 10
983.8427007489995
 20
413.94696713339988
 30
0.0
  0
POINT
  5
CA
  8
DEFPOINTS
 62
     0
 10
1045.175186381146
 20
413.94696713339988
 30
0.0
  0
ENDBLK
  5
BF
  8
0
  0
BLOCK
  8
0
  2
*U5
 70
     1
 10
0.0
 20
0.0
 30
0.0
  3
*U5
  1

  0
TEXT
  5
F7
  8
0
 62
     0
 10
1034.9668530478141
 20
205.5151502333668
 30
0.0
 40
3.5
  1
413,947
  0
ENDBLK
  5
F9
  8
0
  0
ENDSEC
  0
SECTION
  2
ENTITIES
  0
LINE
  5
5A
  8
0
  6
CONTINUOUS
 62
     7
 10
977.3468724231459
 20
373.88783951040881
 30
0.0
 11
489.17343621157272
 21
408.75737066839957
 31
0.0
  0
LINE
  5
5D
  8
0
  6
CONTINUOUS
 62
     7
 10
489.17343621157272
 20
408.75737066839957
 30
0.0
 11
1.0
 21
373.88783951040881
 31
0.0
  0
LINE
  5
60
  8
0
  6
CONTINUOUS
 62
     7
 10
652.96023277597271
 20
16.21320343559989
 30
0.0
 11
660.38663964717273
 21
8.7867965643998787
 31
0.0
  0
LINE
  5
61
  8
0
  6
CONTINUOUS
 62
     7
 10
346.59984308277291
 20
25.0
 30
0.0
 11
631.74702934037282
 21
25.0
 31
0.0
  0
LINE
  5
62
  8
0
  6
CONTINUOUS
 62
     7
 10
317.960232775973
 20
8.7867965643998787
 30
0.0
 11
325.38663964717301
 21
16.21320343559989
 31
0.0
  0
ARC
  5
66
  8
0
  6
CONTINUOUS
 62
     7
 10
681.59984308277285
 20
30.0
 30
0.0
 40
29.999999999999488
 50
225.00000000000031
 51
270.0
  0
ARC
  5
67
  8
0
  6
CONTINUOUS
 62
     7
 10
631.74702934037282
 20
-5.0
 30
0.0
 40
30.000000000000519
 50
45.000000000000362
 51
90.0
  0
ARC
  5
68
  8
0
  6
CONTINUOUS
 62
     7
 10
346.59984308277291
 20
-5.0
 30
0.0
 40
29.99999999999957
 50
90.0
 51
134.9999999999996
  0
ARC
  5
69
  8
0
  6
CONTINUOUS
 62
     7
 10
296.7470293403731
 20
30.0
 30
0.0
 40
29.999999999999929
 50
270.0
 51
314.9999999999996
  0
ARC
  5
6D
  8
0
  6
CONTINUOUS
 62
     7
 10
1099.1734362115731
 20
175.86122928969991
 30
0.0
 40
232.50000000000031
 50
118.9023719373421
 51
229.1471823883011
  0
ARC
  5
6E
  8
0
  6
CONTINUOUS
 62
     7
 10
-120.82656378842699
 20
175.86122928969991
 30
0.0
 40
232.50000000000051
 50
310.85281761169881
 51
61.097628062657897
  0
CIRCLE
  5
86
  8
0
 10
489.17343621157272
 20
352.0
 30
0.0
 40
19.99999999998554
  0
LINE
  5
2F4
  8
0
  6
CONTINUOUS
 62
     7
 10
986.8018558006919
 20
379.40208001986917
 30
0.0
 11
489.17343621157272
 21
414.9469671333996
 31
0.0
  0
LINE
  5
2F5
  8
0
  6
CONTINUOUS
 62
     7
 10
489.17343621157272
 20
414.9469671333996
 30
0.0
 11
-8.4549833775461565
 21
379.40208001986952
 31
0.0
  0
POLYLINE
  5
569
  8
якни2
 66
     1
 10
0.0
 20
0.0
 30
0.0
 70
     1
  0
VERTEX
  5
734
  8
якни2
 10
0.0
 20
414.9469671333996
 30
0.0
  0
VERTEX
  5
735
  8
якни2
 10
978.34687242314635
 20
414.9469671333996
 30
0.0
  0
VERTEX
  5
736
  8
якни2
 10
978.34687242314635
 20
-0.0000000000001137
 30
0.0
  0
VERTEX
  5
737
  8
якни2
 10
0.0
 20
-0.0000000000001137
 30
0.0
  0
SEQEND
  5
738
  8
якни2
  0
POLYLINE
  5
58C
  8
якни2
 66
     1
 10
0.0
 20
0.0
 30
0.0
 70
     1
  0
VERTEX
  5
739
  8
якни2
 10
0.0
 20
414.9469671333996
 30
0.0
  0
VERTEX
  5
73A
  8
якни2
 10
3013.0000000000018
 20
414.9469671333996
 30
0.0
  0
VERTEX
  5
73B
  8
якни2
 10
3013.0000000000018
 20
-0.0000000000002274
 30
0.0
  0
VERTEX
  5
73C
  8
якни2
 10
0.0
 20
-0.0000000000002274
 30
0.0
  0
SEQEND
  5
73D
  8
якни2
  0
LINE
  5
721
  8
0
  6
CONTINUOUS
 62
     7
 10
3012.0000000000018
 20
373.88783951040858
 30
0.0
 11
2523.8265637884278
 21
408.75737066839929
 31
0.0
  0
LINE
  5
722
  8
0
  6
CONTINUOUS
 62
     7
 10
2523.8265637884278
 20
408.75737066839929
 30
0.0
 11
2035.653127576855
 21
373.88783951040858
 31
0.0
  0
LINE
  5
723
  8
0
  6
CONTINUOUS
 62
     7
 10
2687.6133603528278
 20
16.21320343559978
 30
0.0
 11
2695.0397672240279
 21
8.7867965643997632
 31
0.0
  0
LINE
  5
724
  8
0
  6
CONTINUOUS
 62
     7
 10
2381.2529706596292
 20
24.999999999999769
 30
0.0
 11
2666.4001569172292
 21
24.999999999999769
 31
0.0
  0
LINE
  5
725
  8
0
  6
CONTINUOUS
 62
     7
 10
2352.6133603528278
 20
8.7867965643997632
 30
0.0
 11
2360.0397672240279
 21
16.21320343559978
 31
0.0
  0
ARC
  5
726
  8
0
  6
CONTINUOUS
 62
     7
 10
2716.2529706596292
 20
29.999999999999769
 30
0.0
 40
29.999999999999488
 50
224.9999999999954
 51
270.0
  0
ARC
  5
727
  8
0
  6
CONTINUOUS
 62
     7
 10
2666.4001569172292
 20
-5.0000000000002274
 30
0.0
 40
30.000000000000519
 50
44.999999999995389
 51
90.0
  0
ARC
  5
728
  8
0
  6
CONTINUOUS
 62
     7
 10
2381.2529706596292
 20
-5.0000000000002274
 30
0.0
 40
29.99999999999957
 50
90.0
 51
135.0000000000046
  0
ARC
  5
729
  8
0
  6
CONTINUOUS
 62
     7
 10
2331.4001569172278
 20
29.999999999999769
 30
0.0
 40
29.999999999999929
 50
270.0
 51
315.0000000000046
  0
ARC
  5
72A
  8
0
  6
CONTINUOUS
 62
     7
 10
3133.8265637884278
 20
175.86122928969959
 30
0.0
 40
232.50000000000031
 50
118.902371937338
 51
229.14718238829221
  0
ARC
  5
72B
  8
0
  6
CONTINUOUS
 62
     7
 10
1913.8265637884281
 20
175.86122928969959
 30
0.0
 40
232.50000000000051
 50
310.85281761170768
 51
61.097628062661968
  0
CIRCLE
  5
72C
  8
0
 10
2523.8265637884278
 20
351.99999999999977
 30
0.0
 40
19.99999999998554
  0
LINE
  5
72D
  8
0
  6
CONTINUOUS
 62
     7
 10
3021.4549833775468
 20
379.40208001986889
 30
0.0
 11
2523.8265637884278
 21
414.94696713339943
 31
0.0
  0
LINE
  5
72E
  8
0
  6
CONTINUOUS
 62
     7
 10
2523.8265637884278
 20
414.94696713339943
 30
0.0
 11
2026.1981441993089
 21
379.4020800198694
 31
0.0
  0
POLYLINE
  5
72F
  8
якни2
 66
     1
 10
0.0
 20
0.0
 30
0.0
 70
     1
  0
VERTEX
  5
783
  8
якни2
 10
2034.653127576855
 20
414.94696713339943
 30
0.0
  0
VERTEX
  5
784
  8
якни2
 10
3013.0000000000018
 20
414.94696713339943
 30
0.0
  0
VERTEX
  5
785
  8
якни2
 10
3013.0000000000018
 20
-0.0000000000002274
 30
0.0
  0
VERTEX
  5
786
  8
якни2
 10
2034.653127576855
 20
-0.0000000000002274
 30
0.0
  0
SEQEND
  5
787
  8
якни2
  0
ENDSEC
  0
EOF
